<?xml version="1.0" encoding="UTF-8" standalone="no"?>
<!DOCTYPE svg PUBLIC "-//W3C//DTD SVG 1.1//EN" "http://www.w3.org/Graphics/SVG/1.1/DTD/svg11.dtd">
<svg width="100%" height="100%" viewBox="0 0 53 60" version="1.1" xmlns="http://www.w3.org/2000/svg" xmlns:xlink="http://www.w3.org/1999/xlink" xml:space="preserve" xmlns:serif="http://www.serif.com/" style="fill-rule:evenodd;clip-rule:evenodd;stroke-linejoin:round;stroke-miterlimit:2;">
    <g transform="matrix(1.5,0,0,1.5,0,0)">
        <g transform="matrix(1,0,0,1,-4.96894e-05,-2.48443e-05)">
            <path d="M12.545,6.27C12.569,6.495 12.595,6.72 12.622,6.945L22.782,7.225C22.786,7.17 22.789,7.115 22.793,7.059L22.793,7.062C22.799,6.964 22.805,6.866 22.81,6.768C22.816,6.669 22.821,6.57 22.826,6.472C22.829,6.423 22.831,6.374 22.834,6.324L19.234,4.246C18.249,3.678 17.036,3.678 16.051,4.246L12.545,6.27ZM13.254,10.711L22.407,11.009C22.413,10.963 22.419,10.916 22.426,10.87L22.425,10.874L22.441,10.759C22.45,10.685 22.46,10.611 22.469,10.537C22.476,10.48 22.483,10.423 22.49,10.365C22.498,10.308 22.505,10.25 22.513,10.192C22.523,10.113 22.533,10.034 22.543,9.954C22.543,9.953 22.542,9.959 22.542,9.958C22.552,9.877 22.562,9.796 22.571,9.715C22.571,9.713 22.57,9.719 22.57,9.718C22.599,9.468 22.625,9.218 22.649,8.968C22.673,8.707 22.695,8.445 22.715,8.183L12.833,8.456C12.951,9.21 13.09,9.961 13.253,10.707L13.254,10.711ZM14.351,14.44L21.759,14.718C21.81,14.5 21.855,14.28 21.895,14.06C21.902,14.021 21.903,14.022 21.912,13.981C21.923,13.927 21.933,13.874 21.944,13.82C21.977,13.653 22.007,13.485 22.035,13.317C22.04,13.288 22.046,13.259 22.051,13.231C22.057,13.201 22.062,13.172 22.068,13.142C22.089,13.022 22.11,12.903 22.129,12.782C22.143,12.7 22.155,12.617 22.168,12.534C22.181,12.46 22.194,12.386 22.207,12.313C22.226,12.196 22.246,12.08 22.264,11.963L13.63,12.244C13.715,12.555 13.806,12.863 13.903,13.17C14.038,13.598 14.186,14.022 14.351,14.44ZM18.999,18.961C19.003,18.96 19.008,18.959 19.012,18.958C19.197,18.917 19.373,18.841 19.535,18.745C19.668,18.667 19.792,18.576 19.909,18.475C20.046,18.357 20.172,18.226 20.288,18.085C20.317,18.049 20.346,18.012 20.375,17.974C20.392,17.951 20.409,17.927 20.426,17.904C20.453,17.867 20.481,17.83 20.507,17.793C20.593,17.67 20.672,17.541 20.746,17.41C20.753,17.398 20.761,17.385 20.769,17.373C20.776,17.361 20.784,17.348 20.792,17.335C20.888,17.172 20.977,17.005 21.057,16.833C21.109,16.724 21.157,16.612 21.203,16.5C21.224,16.447 21.247,16.396 21.267,16.343C21.303,16.254 21.337,16.164 21.369,16.073C21.418,15.936 21.462,15.798 21.504,15.659L15.02,15.902C15.119,16.086 15.224,16.268 15.334,16.445C15.537,16.772 15.762,17.087 16.015,17.377C16.365,17.777 16.777,18.136 17.26,18.364C17.397,18.428 17.539,18.482 17.684,18.523C17.73,18.535 17.776,18.547 17.822,18.558C17.866,18.567 17.911,18.576 17.955,18.586C17.997,18.596 17.997,18.596 18.039,18.606C18.123,18.627 18.207,18.649 18.29,18.675C18.454,18.725 18.615,18.785 18.772,18.854C18.849,18.887 18.924,18.923 18.999,18.961ZM13.045,27.455L21.535,27.152C21.448,26.838 21.356,26.524 21.258,26.213C21.106,25.73 20.94,25.252 20.754,24.781L13.588,24.47C13.575,24.522 13.563,24.574 13.55,24.625C13.493,24.873 13.444,25.122 13.4,25.372C13.388,25.433 13.376,25.494 13.364,25.556C13.328,25.739 13.296,25.923 13.267,26.108C13.258,26.154 13.25,26.199 13.242,26.245C13.226,26.336 13.21,26.427 13.195,26.518C13.175,26.642 13.157,26.765 13.138,26.888C13.126,26.956 13.115,27.023 13.103,27.09C13.083,27.211 13.064,27.333 13.045,27.455ZM12.592,31.23L22.354,30.931C22.237,30.235 22.104,29.541 21.953,28.851C21.941,28.799 21.929,28.747 21.918,28.695L12.909,28.374C12.877,28.604 12.847,28.835 12.819,29.066C12.811,29.131 12.802,29.196 12.794,29.26C12.711,29.915 12.643,30.572 12.592,31.23ZM10.325,32.205C10.342,31.995 10.36,31.783 10.38,31.572C10.385,31.519 10.391,31.466 10.397,31.412C10.402,31.364 10.408,31.314 10.413,31.265C10.434,31.074 10.457,30.882 10.481,30.691C10.536,30.24 10.599,29.789 10.669,29.339C10.695,29.169 10.723,29 10.751,28.83L10.765,28.751C10.845,28.325 10.931,27.9 11.028,27.478C11.042,27.422 11.056,27.365 11.07,27.309C11.116,27.13 11.162,26.952 11.211,26.774C11.23,26.705 11.249,26.638 11.269,26.568C11.279,26.531 11.288,26.494 11.3,26.458C11.382,26.203 11.467,25.949 11.556,25.696L11.574,25.646C11.669,25.4 11.767,25.155 11.87,24.912L11.88,24.89C12.007,24.613 12.14,24.338 12.28,24.067C12.363,23.906 12.449,23.746 12.537,23.587L12.558,23.55C12.708,23.3 12.864,23.055 13.028,22.815C13.088,22.728 13.15,22.641 13.212,22.555C13.237,22.52 13.263,22.485 13.289,22.451C13.518,22.153 13.762,21.866 14.027,21.6C14.039,21.587 14.052,21.576 14.065,21.564C14.077,21.554 14.088,21.543 14.1,21.533C14.157,21.482 14.214,21.432 14.272,21.383C14.355,21.312 14.44,21.244 14.527,21.178C14.551,21.16 14.576,21.143 14.6,21.125C14.632,21.104 14.664,21.082 14.695,21.06C14.803,20.988 14.912,20.919 15.024,20.855C15.096,20.814 15.169,20.774 15.243,20.738C15.333,20.695 15.424,20.654 15.517,20.618C15.645,20.567 15.775,20.525 15.908,20.493C16.001,20.47 16.094,20.453 16.188,20.443C16.247,20.437 16.307,20.434 16.366,20.437L16.369,20.437L16.383,20.452L16.368,20.465C16.359,20.465 16.35,20.466 16.34,20.467C16.336,20.467 16.326,20.468 16.329,20.468C16.316,20.469 16.303,20.47 16.29,20.472C16.104,20.498 15.925,20.566 15.76,20.653C15.617,20.729 15.485,20.822 15.361,20.926C15.31,20.969 15.261,21.012 15.214,21.058C15.121,21.148 15.034,21.244 14.954,21.344C14.925,21.381 14.896,21.418 14.868,21.457C14.859,21.469 14.85,21.482 14.841,21.494C14.806,21.542 14.77,21.59 14.737,21.639C14.66,21.752 14.589,21.87 14.523,21.989C14.516,22.002 14.508,22.014 14.501,22.026C14.493,22.039 14.486,22.051 14.479,22.064C14.408,22.185 14.342,22.308 14.281,22.434C14.206,22.587 14.138,22.744 14.075,22.903C14.061,22.939 14.046,22.975 14.031,23.012C13.996,23.101 13.963,23.191 13.931,23.282C13.899,23.371 13.869,23.461 13.841,23.551L20.064,23.281C19.907,22.989 19.736,22.704 19.548,22.43C19.369,22.17 19.174,21.921 18.958,21.691C18.66,21.377 18.317,21.096 17.922,20.915C17.808,20.863 17.691,20.819 17.571,20.786C17.494,20.765 17.415,20.749 17.337,20.732C17.294,20.722 17.294,20.722 17.251,20.712C17.152,20.687 17.053,20.661 16.955,20.63C16.776,20.575 16.599,20.509 16.427,20.433C16.257,20.358 16.091,20.273 15.93,20.18C15.807,20.109 15.687,20.034 15.569,19.953C14.826,19.444 14.213,18.764 13.705,18.025C13.631,17.917 13.559,17.807 13.488,17.696C13.386,17.534 13.288,17.369 13.194,17.203C13.069,16.982 12.951,16.758 12.839,16.53C12.698,16.245 12.567,15.955 12.443,15.662C12.276,15.266 12.124,14.864 11.983,14.458C11.801,13.933 11.638,13.402 11.49,12.866C11.297,12.166 11.131,11.459 10.984,10.748C10.8,9.856 10.647,8.958 10.521,8.057C10.494,7.866 10.469,7.674 10.444,7.483L4.899,10.684C3.915,11.253 3.308,12.304 3.308,13.441L3.308,26.317C3.308,27.454 3.915,28.505 4.899,29.074L10.325,32.205ZM24.812,32.291L30.385,29.074C31.37,28.505 31.976,27.454 31.976,26.317L31.976,13.441C31.976,12.304 31.37,11.253 30.385,10.684L24.951,7.547C24.944,7.633 24.936,7.72 24.929,7.806L24.924,7.857C24.828,8.802 24.705,9.745 24.544,10.682C24.533,10.742 24.521,10.803 24.51,10.863C24.457,11.133 24.402,11.403 24.343,11.672C24.323,11.766 24.302,11.859 24.28,11.953C24.273,11.981 24.24,12.11 24.24,12.111C24.217,12.199 24.207,12.238 24.184,12.325C24.13,12.531 24.073,12.736 24.013,12.94L24.004,12.972C23.916,13.244 23.823,13.514 23.726,13.782C23.714,13.814 23.701,13.845 23.689,13.876C23.655,13.961 23.653,13.968 23.619,14.051C23.553,14.214 23.486,14.377 23.415,14.538C23.402,14.57 23.386,14.601 23.371,14.632C23.358,14.658 23.346,14.685 23.333,14.711C23.284,14.813 23.234,14.914 23.184,15.015C23.088,15.207 22.989,15.397 22.886,15.585C22.838,15.673 22.788,15.76 22.739,15.847L22.726,15.87C22.572,16.119 22.413,16.364 22.245,16.604C22.184,16.69 22.123,16.775 22.06,16.86C22.035,16.893 22.01,16.928 21.984,16.961C21.752,17.255 21.507,17.539 21.24,17.802C21.228,17.815 21.214,17.826 21.201,17.838C21.166,17.869 21.131,17.9 21.095,17.931C20.986,18.026 20.874,18.117 20.76,18.205C20.744,18.217 20.744,18.217 20.728,18.229C20.509,18.385 20.282,18.53 20.043,18.654C19.984,18.685 19.924,18.714 19.863,18.741C19.765,18.785 19.666,18.826 19.565,18.862C19.448,18.903 19.329,18.938 19.208,18.964C19.158,18.975 19.108,18.984 19.058,18.99C19.102,19.013 19.147,19.037 19.191,19.062C19.289,19.117 19.386,19.175 19.481,19.237C20.221,19.717 20.83,20.376 21.334,21.095C21.418,21.215 21.499,21.337 21.578,21.46C21.681,21.622 21.78,21.787 21.876,21.954C22.003,22.176 22.122,22.402 22.236,22.631C22.38,22.919 22.514,23.212 22.64,23.509C22.811,23.912 22.968,24.321 23.114,24.734C23.314,25.301 23.492,25.877 23.654,26.457C23.864,27.209 24.045,27.968 24.206,28.732C24.406,29.682 24.573,30.638 24.715,31.598C24.749,31.829 24.781,32.06 24.812,32.291ZM12.447,33.431L16.051,35.512C17.036,36.08 18.249,36.08 19.234,35.512L22.718,33.5C22.678,33.155 22.635,32.811 22.588,32.467L12.523,32.159C12.493,32.582 12.468,33.006 12.447,33.431ZM24.611,3.531L33.693,8.774C34.678,9.343 35.284,10.394 35.284,11.531L35.284,28.227C35.284,29.364 34.678,30.415 33.693,30.983C30.34,32.919 22.586,37.396 19.234,39.331C18.249,39.9 17.036,39.9 16.051,39.331C12.698,37.396 4.944,32.919 1.592,30.983C0.607,30.415 0,29.364 0,28.227L0,11.531C0,10.394 0.607,9.343 1.592,8.774C4.944,6.839 12.698,2.362 16.051,0.426C17.036,-0.142 18.249,-0.142 19.234,0.426L24.407,3.413L24.466,3.427C24.523,3.467 24.57,3.501 24.611,3.531Z" style="fill:rgb(251,251,251);"/>
        </g>
    </g>
</svg>
